<svg width="80" height="80" viewBox="0 0 80 80" fill="none" xmlns="http://www.w3.org/2000/svg">
<rect width="80" height="80" rx="40" fill="#C75032"/>
<g clip-path="url(#clip0_205_47)">
<path d="M64.0002 43.0008C64.0002 43.6574 63.8709 44.3076 63.6196 44.9142C63.3683 45.5208 63 46.072 62.5358 46.5363C62.0715 47.0006 61.5203 47.3689 60.9136 47.6202C60.307 47.8715 59.6568 48.0008 59.0002 48.0008H50.9282L42.4762 60.9748C41.9561 61.8975 41.1988 62.6645 40.2829 63.1965C39.3669 63.7285 38.3255 64.0062 37.2662 64.0008C36.4163 64.001 35.5791 63.7952 34.8261 63.4011C34.0732 63.0069 33.427 62.4361 32.943 61.7375C32.4589 61.039 32.1514 60.2335 32.0468 59.3901C31.9421 58.5467 32.0435 57.6905 32.3422 56.8948L36.0382 48.0008H28.0002C26.59 48.0009 25.2047 47.6282 23.9849 46.9205C22.7651 46.2127 21.7541 45.1951 21.0542 43.9708L16.4002 36.3208C16.2014 35.9906 16.0707 35.6239 16.0159 35.2423C15.9611 34.8607 15.9832 34.4721 16.0811 34.0992C16.179 33.7264 16.3506 33.3769 16.5857 33.0715C16.8209 32.766 17.1148 32.5108 17.4502 32.3208C17.9825 32.0417 18.5899 31.9397 19.1841 32.0297C19.7783 32.1196 20.3284 32.3967 20.7542 32.8208L23.5882 35.6568C25.0882 37.1572 27.1227 38.0003 29.2442 38.0008H59.0002C59.6568 38.0008 60.307 38.1301 60.9136 38.3814C61.5203 38.6327 62.0715 39.001 62.5358 39.4653C63 39.9295 63.3683 40.4807 63.6196 41.0874C63.8709 41.694 64.0002 42.3442 64.0002 43.0008V43.0008ZM51.4622 34.0008L42.4622 19.0268C41.9427 18.1048 41.1865 17.3382 40.2716 16.8063C39.3568 16.2743 38.3165 15.9962 37.2582 16.0008C36.4085 16.001 35.5715 16.2071 34.8188 16.6014C34.0661 16.9957 33.4202 17.5665 32.9362 18.2649C32.4522 18.9633 32.1447 19.7686 32.0398 20.6118C31.935 21.4551 32.036 22.3111 32.3342 23.1068L36.5702 34.0008H51.4622Z" fill="white"/>
</g>
<defs>
<clipPath id="clip0_205_47">
<rect width="48" height="48" fill="white" transform="translate(16 16)"/>
</clipPath>
</defs>
</svg>
